#!OML:ASF G:\JayActor3\Patient Classification 1\Patient 1\Session 6\male.ASF
:FULLY-SPECIFIED
:DEGREES
1053
root 20.165 14.2355 -12.4133 13.6375 -57.3539 4.01408
lowerback 38.2856 -1.28911 5.58573
upperback 19.4555 -1.49424 2.03528
thorax 2.71147 -1.05479 -0.327533
lowerneck 3.05551 -0.402571 0.604136
upperneck -20.5627 -0.43578 1.72253
head -6.75305 -0.549852 0.499594
rclavicle 4.85035e-014 2.78299e-015
rhumerus 2.75001 8.16007 -71.2638
rradius 66.7012
rwrist -6.85892
rhand -24.7763 -12.4478
rfingers 7.12502
rthumb 1.72759 -42.4206
lclavicle 4.85035e-014 2.78299e-015
lhumerus 10.2781 -7.60193 58.3145
lradius 65.373
lwrist 29.4303
lhand -15.5609 10.8973
lfingers 7.12502
lthumb 10.6237 40.6087
rfemur -65.319 -7.31024 23.1238
rtibia 77.5461
rfoot -30.0253 -18.5236
rtoes -3.91673
lfemur -60.2484 13.177 -27.8151
ltibia 71.7611
lfoot -25.0416 6.0414
ltoes -7.64433
1054
root 20.1305 14.2509 -12.4162 13.4793 -57.2938 4.22698
lowerback 38.1896 -1.31856 5.58422
upperback 19.4162 -1.52363 2.11246
thorax 2.69771 -1.07258 -0.238454
lowerneck 3.00598 -0.38322 0.611219
upperneck -20.6247 -0.424443 1.64735
head -6.7646 -0.540429 0.473772
rclavicle -1.66979e-014 -6.85807e-014
rhumerus 2.71156 8.17933 -71.2382
rradius 66.609
rwrist -6.88947
rhand -24.6681 -12.4382
rfingers 7.12502
rthumb 1.83213 -42.41
lclavicle -1.66979e-014 -6.85807e-014
lhumerus 10.223 -7.60599 58.3592
lradius 65.4899
lwrist 29.4592
lhand -15.4323 10.9018
lfingers 7.12502
lthumb 10.7477 40.6069
rfemur -65.1108 -7.31079 23.054
rtibia 77.4179
rfoot -30.1156 -18.5399
rtoes -3.83765
lfemur -60.2902 13.2441 -27.8688
ltibia 71.9136
lfoot -24.6858 5.93015
ltoes -8.08604
1055
root 20.0964 14.2672 -12.419 13.3177 -57.2396 4.44447
lowerback 38.093 -1.34436 5.57451
upperback 19.3743 -1.55101 2.18179
thorax 2.68116 -1.08937 -0.15406
lowerneck 2.95907 -0.3583 0.610575
upperneck -20.6952 -0.403357 1.5861
head -6.77937 -0.526945 0.453143
rclavicle -1.51076e-014 2.78299e-015
rhumerus 2.66517 8.19798 -71.2217
rradius 66.5318
rwrist -6.94202
rhand -24.5932 -12.4371
rfingers 7.12502
rthumb 1.90441 -42.4083
lclavicle -1.51076e-014 2.78299e-015
lhumerus 10.1704 -7.60796 58.3934
lradius 65.6109
lwrist 29.4707
lhand -15.2822 10.9072
lfingers 7.12502
lthumb 10.8926 40.6046
rfemur -64.8954 -7.30418 22.9797
rtibia 77.2766
rfoot -30.2186 -18.5482
rtoes -3.70741
lfemur -60.3748 13.3354 -27.9384
ltibia 72.1097
lfoot -24.2614 5.81556
ltoes -8.5751
1056
root 20.0627 14.2841 -12.4218 13.1616 -57.1926 4.64731
lowerback 38.0015 -1.36137 5.56293
upperback 19.3312 -1.56833 2.25055
thorax 2.6619 -1.10145 -0.0722062
lowerneck 2.92104 -0.334546 0.592268
upperneck -20.7723 -0.381877 1.5436
head -6.79771 -0.513525 0.441563
rclavicle -7.15625e-015 -8.94531e-015
rhumerus 2.60805 8.21373 -71.1997
rradius 66.4643
rwrist -7.00785
rhand -24.5593 -12.4513
rfingers 7.12502
rthumb 1.93719 -42.4223
lclavicle -7.15625e-015 -8.94531e-015
lhumerus 10.1284 -7.6067 58.4363
lradius 65.725
lwrist 29.4547
lhand -15.1186 10.9242
lfingers 7.12502
lthumb 11.0503 40.6133
rfemur -64.6647 -7.28549 22.9107
rtibia 77.1215
rfoot -30.3285 -18.5616
rtoes -3.56546
lfemur -60.4959 13.4534 -28.0075
ltibia 72.3539
lfoot -23.7756 5.68894
ltoes -9.04995
1057
root 20.0292 14.3016 -12.4243 13.0152 -57.1513 4.82551
lowerback 37.9196 -1.37334 5.55713
upperback 19.2877 -1.57776 2.31695
thorax 2.63974 -1.10928 0.00206977
lowerneck 2.89354 -0.313324 0.566433
upperneck -20.8517 -0.362073 1.51338
head -6.81862 -0.501325 0.435355
rclavicle 2.70347e-014 4.73108e-014
rhumerus 2.54508 8.22896 -71.1739
rradius 66.3977
rwrist -7.06652
rhand -24.5726 -12.4716
rfingers 7.12502
rthumb 1.92434 -42.4427
lclavicle 2.70347e-014 4.73108e-014
lhumerus 10.096 -7.59633 58.4863
lradius 65.8314
lwrist 29.4116
lhand -14.9418 10.9335
lfingers 7.12502
lthumb 11.2208 40.6134
rfemur -64.4149 -7.25764 22.8526
rtibia 76.9539
rfoot -30.4423 -18.5782
rtoes -3.40611
lfemur -60.6484 13.5946 -28.0665
ltibia 72.6454
lfoot -23.2314 5.55473
ltoes -9.4895
